# xmcd
#
# Track frame offsets: 
#        150
#        25378
#        45617
#        76042
#        98807
#        123989
#        142122
#        159864
#        178958
#        201702
#
# Disc length: 3326 seconds
#
# Revision: 1
# Processed by: cddbd v1.5.2PL0 Copyright (c) Steve Scherf et al.
# Submitted via: ExactAudioCopy v0.99pb5
#
DISCID=870cfc0a
DTITLE=Guitar Pete - Mean Streets
DYEAR=2008
DGENRE=Blues Rock
TTITLE0=Fire And Rain
TTITLE1=Lipstick and Gasoline
TTITLE2=Found Guilty
TTITLE3=One Foot In The Grave
TTITLE4=Slugger's Row
TTITLE5=One Sunny Day
TTITLE6=Rock Bottom
TTITLE7=A Long Way Down
TTITLE8=Lucky Me
TTITLE9=Shattered Paradise
EXTD=
EXTT0=
EXTT1=
EXTT2=
EXTT3=
EXTT4=
EXTT5=
EXTT6=
EXTT7=
EXTT8=
EXTT9=
PLAYORDER=
